# xmcd
#
# Track frame offsets: 
#        151
#        21905
#        38932
#        55810
#        75690
#        83260
#        104542
#        123512
#        142282
#        162440
#        189587
#        200337
#        210007
#        236480
#        244755
#        256450
#        264963
#        284948
#
# Disc length: 3997 seconds
#
# Revision: 0
# Processed by: cddbd v1.5.1PL2 Copyright (c) Steve Scherf et al.
# Submitted via: ExactAudioCopy v0.95b3
#
DISCID=010f9b12
DTITLE=Various Artist - Helter Skelter - Masters @ Work Volume II, CD3 Billy 
DTITLE='Daniel' Bunter and M Zone
DYEAR=1998
DGENRE=Rave
TTITLE0=The Smith Brothers/That Emotion [Exclusive Album Mix]
TTITLE1=Choci/Can You Feel The Force [Billy Bunter and Rob Vandem Remix]
TTITLE2=Daniel/My Mind Can't Work [Exclusive M@W Mix]
TTITLE3=Vandalize/Warriors 98
TTITLE4=Daniel/Breaking Up [Exclusive Album Mix]
TTITLE5=Choci and The Powder Front/Just Feel It
TTITLE6=The Smith Brothers/Let Off The Love [Exclusive Remix]
TTITLE7=Ultra Sonic/Ultra Funky [GBT Inc, Another Level Remix]
TTITLE8=DJ Energy/Progressive Attack
TTITLE9=M Zone/Air Attack
TTITLE10=Electric Fruit Orchestra/Quatro
TTITLE11=Remove/See You At Streetparade
TTITLE12=D Factor/Tripwire
TTITLE13=Bounce Trax/Synergy 'Aeroplane'
TTITLE14=DJ Gollum/Energy
TTITLE15=Code 21/Wanna Play House
TTITLE16=M Zone/Plasma Man
TTITLE17=Gary D/D Trance
EXTD=
EXTT0=
EXTT1=
EXTT2=
EXTT3=
EXTT4=
EXTT5=
EXTT6=
EXTT7=
EXTT8=
EXTT9=
EXTT10=
EXTT11=
EXTT12=
EXTT13=
EXTT14=
EXTT15=
EXTT16=
EXTT17=
PLAYORDER=
